<?xml version="1.0" encoding="UTF-8"?>
<svg width="68px" height="75px" viewBox="0 0 68 75" version="1.1" xmlns="http://www.w3.org/2000/svg" xmlns:xlink="http://www.w3.org/1999/xlink">
    <!-- Generator: Sketch 42 (36781) - http://www.bohemiancoding.com/sketch -->
    <title>Group 41</title>
    <desc>Created with Sketch.</desc>
    <defs></defs>
    <g id="Page-1" stroke="none" stroke-width="1" fill="none" fill-rule="evenodd">
        <g id="Group-41" fill="#FFFFFF">
            <g id="Imported-Layers">
                <path d="M67.4552103,13.0177374 C67.4552103,14.6392458 67.4926401,16.2090084 67.4480122,17.7764665 C67.3266736,22.0294693 67.213767,26.2835196 67.0161291,30.5331704 C66.8232213,34.6807961 66.4954014,38.8164804 65.3657185,42.8407123 C63.5548942,49.2909218 60.289652,54.8945531 55.8326181,59.7879888 C49.782141,66.4309358 42.5168383,71.2812151 34.3194907,74.7226257 C34.0714664,74.8267458 33.7082732,74.8259078 33.4596319,74.7224162 C26.1221431,71.6719274 19.5287272,67.4396648 13.8147076,61.8217877 C9.71839889,57.7942039 6.39022517,53.2089385 4.08438053,47.884148 C2.39818536,43.9902235 1.31600962,39.9243017 1.03795914,35.6807263 C0.714252446,30.7407821 0.510650395,25.7920391 0.300878586,20.8451816 C0.198049267,18.4238128 0.199283219,15.9978352 0.154243978,13.573743 C0.150953439,13.4009078 0.15383266,13.2278631 0.15383266,13.0587989 C11.9970966,10.1914106 23.538248,6.62786313 33.7886858,0.000209497207 C36.2493913,1.37534916 38.6212524,2.80810056 41.0838089,4.05502793 C46.7379818,6.91759777 52.6782259,9.03603352 58.7480349,10.7706704 C61.4968682,11.5562849 64.2845711,12.2004888 67.0545872,12.9092179 C67.1868257,12.9429469 67.3182416,12.9804469 67.4552103,13.0177374 L67.4552103,13.0177374 Z M2.36486867,23.064595 C2.34204056,23.0660615 2.31921245,23.0675279 2.29617868,23.0689944 C2.52363713,26.9503492 2.73052972,30.8329609 2.9847238,34.7124302 C3.21382752,38.2097765 3.91512347,41.6118017 5.10712093,44.9057263 C7.26201213,50.8611034 10.7487487,55.9093575 15.2008468,60.299581 C20.5292565,65.5539804 26.6798893,69.5337989 33.4849279,72.4885475 C33.7146486,72.5882682 34.0652966,72.5953911 34.286174,72.4885475 C36.2629648,71.5324022 38.2724554,70.6303073 40.1797336,69.5440642 C47.5583541,65.3428073 53.957217,59.997067 58.6647432,52.7413408 C61.6416519,48.152933 63.5892392,43.1428073 64.3503818,37.6918994 C65.0095178,32.9715084 65.1150206,28.2060754 65.2729665,23.4486034 C65.3648959,20.6773743 65.3858731,17.9036313 65.4555913,15.1313547 C65.4644347,14.777095 65.3363093,14.6488827 65.0171271,14.5749302 C60.3614269,13.4956006 55.7783242,12.1543994 51.266585,10.5632682 C45.3193485,8.46620112 39.5452767,5.98261173 34.1936276,2.56675978 C33.9486882,2.41026536 33.7872461,2.42660615 33.5538236,2.57555866 C30.735272,4.37325419 27.7768725,5.89944134 24.7310681,7.25300279 C17.637696,10.4053073 10.2769677,12.7248603 2.75808798,14.5462291 C2.37042145,14.6402933 2.18759092,14.7578212 2.20054741,15.2174581 C2.27499584,17.8326117 2.31386532,20.4488128 2.36486867,23.064595 L2.36486867,23.064595 Z" id="Fill-1"></path>
                <path d="M5.32964358,16.6810056 C7.10673986,16.2274441 8.93792436,15.790014 10.7530675,15.2916201 C17.007558,13.574581 23.1248741,11.4653631 28.9108742,8.46263966 C30.5088418,7.63324022 32.0319497,6.65384078 33.5830271,5.73184358 C33.8008196,5.6021648 33.9573258,5.49804469 34.2205689,5.67486034 C38.9118481,8.82192737 44.0308972,11.0444832 49.3169411,12.9062849 C53.5245112,14.3882682 57.8005656,15.6188547 62.1533306,16.571648 C62.2682938,16.5967877 62.3791438,16.6424581 62.468811,16.6711592 C62.468811,18.3481844 62.5000711,20.0046788 62.4618186,21.6592877 C62.3960078,24.5009078 62.3227933,27.3429469 62.1864417,30.1816341 C62.0233544,33.5767458 61.8682877,36.976676 61.1287393,40.311662 C59.8647613,46.0127095 57.252691,51.0159218 53.5064132,55.4053073 C48.2493671,61.5647346 41.7674182,65.9784218 34.4075126,69.1037011 C34.1432412,69.2157821 33.7551634,69.2187151 33.4906864,69.1085196 C27.2950143,66.5243715 21.727835,62.9384078 16.8938287,58.2039804 C13.2479124,54.6333101 10.3329069,50.5347067 8.36166886,45.7709497 C7.02858957,42.5495112 6.1792194,39.1916899 5.97726262,35.7035615 C5.70209137,30.9527933 5.52337401,26.1959497 5.33930953,21.4401536 C5.27864023,19.8739525 5.32964358,18.303352 5.32964358,16.6810056 L5.32964358,16.6810056 Z M61.4444253,17.660824 C61.1558862,17.5831006 60.9932102,17.5340782 60.8278607,17.4957402 C56.8892921,16.5796089 53.0064571,15.4617318 49.1861422,14.1245112 C43.9638525,12.296648 38.8918992,10.1310754 34.2189236,7.09127095 C33.9493051,6.91571229 33.7936216,7.01815642 33.5819988,7.13903631 C31.9710747,8.05977654 30.3914107,9.04546089 28.7372983,9.87821229 C22.0943187,13.2222067 15.0663461,15.4585894 7.89688034,17.2726257 C7.43250314,17.3899441 6.77912565,17.359567 6.55392944,17.661243 C6.31310318,17.9844972 6.45007183,18.6205307 6.46508491,19.1185056 C6.6028762,23.6679469 6.68226043,28.2207402 6.92246972,32.7647346 C7.04812715,35.1423184 7.29923634,37.538757 7.77595306,39.8666899 C9.04260461,46.052514 12.0598225,51.3266061 16.29783,55.8917598 C21.171734,61.1421788 26.9828245,65.0086592 33.4886298,67.8228352 C33.7477597,67.9351257 34.1348092,67.9326117 34.3951731,67.8209497 C39.4500567,65.6532821 44.0800496,62.773324 48.227773,59.1127793 C51.9246926,55.8500698 55.0194438,52.0898045 57.2874473,47.6459497 C59.6241407,43.0678073 60.6429736,38.1599162 60.8609717,33.0532123 C61.0795869,27.9324721 61.2511062,22.8098464 61.4444253,17.660824 L61.4444253,17.660824 Z" id="Fill-2"></path>
                <path d="M26.5299642,30.7439246 C26.5299642,29.8162709 26.5151567,28.947067 26.5326377,28.0784916 C26.5970089,24.8578911 28.0292156,22.465433 30.9170742,21.1682263 C33.8043158,19.8712291 36.5270305,20.3817737 38.8758578,22.5368715 C40.4894555,24.0171788 41.202474,25.9443436 41.2168701,28.1446927 C41.2222172,28.9803771 41.2176927,29.8160615 41.2176927,30.7439246 C41.6345627,30.7439246 42.0193501,30.7422486 42.4039317,30.7441341 C44.0393292,30.752933 45.1406312,31.874162 45.1414538,33.5398743 C45.1435104,37.8867318 45.1437161,42.2335894 45.1412482,46.5804469 C45.1402199,48.2182961 44.0354217,49.3523045 42.4358088,49.352933 C36.7291929,49.3558659 31.0225771,49.3554469 25.3159612,49.3531425 C23.691875,49.352514 22.6066143,48.2482542 22.6057917,46.6005587 C22.6039408,42.2363128 22.6039408,37.872067 22.6059974,33.5078212 C22.6066143,31.8580307 23.6922863,30.752095 25.3110254,30.7441341 C25.7003372,30.7422486 26.089649,30.7439246 26.5299642,30.7439246 L26.5299642,30.7439246 Z M28.5596092,30.634567 L39.0922107,30.634567 C39.0922107,29.4475559 39.1970966,28.2881983 39.0702052,27.1558659 C38.8116923,24.8486732 36.9348516,22.9780726 34.704278,22.6426676 C32.3445508,22.2875698 30.0905321,23.5221369 29.0762237,25.6707402 C28.3226905,27.2671089 28.6566801,28.9489525 28.5596092,30.634567 L28.5596092,30.634567 Z" id="Fill-3"></path>
            </g>
        </g>
    </g>
</svg>