<?xml version="1.0" encoding="UTF-8"?>
<svg width="48px" height="43px" viewBox="0 0 48 43" version="1.1" xmlns="http://www.w3.org/2000/svg" xmlns:xlink="http://www.w3.org/1999/xlink">
    <!-- Generator: Sketch 42 (36781) - http://www.bohemiancoding.com/sketch -->
    <title>Imported Layers</title>
    <desc>Created with Sketch.</desc>
    <defs></defs>
    <g id="Home" stroke="none" stroke-width="1" fill="none" fill-rule="evenodd">
        <g id="investment" transform="translate(-6.000000, -9.000000)">
            <g id="Imported-Layers" transform="translate(6.000000, 9.000000)">
                <path d="M36.9015154,9.69344487 C38.1485324,9.69344487 39.3210102,9.68257541 40.4931604,9.69620279 C42.0696246,9.71453485 43.2614334,10.4023929 43.9147577,11.8314829 C44.1482048,12.3418606 44.2481365,12.9499011 44.2579659,13.515924 C44.2963003,15.7049024 44.273529,17.8948542 44.273529,20.0844816 L44.273529,20.6157871 C44.427686,20.6263321 44.5572696,20.641744 44.6870171,20.6427174 C45.1647235,20.645962 45.6429215,20.6313612 46.1201365,20.6474221 C47.172041,20.6829506 47.9415154,21.407635 47.9510171,22.4452624 C47.9734608,24.8915387 47.9729693,27.3381394 47.9515085,29.7844157 C47.9423345,30.8382662 47.1622116,31.5661952 46.0875358,31.5919899 C45.504,31.6059417 44.9198089,31.5944233 44.273529,31.5944233 L44.273529,32.1054499 C44.273529,34.2949151 44.2750034,36.4845425 44.2732014,38.6741698 C44.2712355,40.9917972 42.7113174,42.5446692 40.3788123,42.5448314 C28.231372,42.5461293 16.0840956,42.5461293 3.93665529,42.5448314 C1.60333106,42.5446692 0.0412832765,40.9924461 0.0409556314,38.6754677 C0.0396450512,29.9711432 0.0398088737,21.2668188 0.0409556314,12.5624943 C0.0412832765,10.7453485 1.03077133,9.40288973 2.78514676,8.88050697 C12.5430717,5.97544233 22.3019795,3.07329785 32.0633447,0.179102662 C34.5770375,-0.566185044 36.8821843,1.15037769 36.8992218,3.76618504 C36.9108532,5.56370089 36.9015154,7.36137896 36.9015154,9.15905703 L36.9015154,9.69344487 L36.9015154,9.69344487 Z M42.7870687,20.5475908 L42.7870687,20.0898024 C42.7870687,17.8198454 42.7879022,15.5498884 42.7867353,13.2800965 C42.7860684,12.0213021 42.0108778,11.2615682 40.7273954,11.2614031 C28.3358476,11.2610729 15.9442997,11.2610729 3.55275183,11.2615682 C2.30694541,11.2615682 1.52725363,12.0354997 1.52725363,13.2718421 C1.52675351,21.8285069 1.52675351,30.3853368 1.52725363,38.9421667 C1.52725363,40.2116918 2.29494246,40.9767086 3.57008943,40.9767086 C15.9616373,40.9772038 28.3531852,40.9772038 40.744733,40.9767086 C42.0153789,40.9767086 42.7862351,40.2072344 42.7867353,38.9410111 C42.7877355,36.6849215 42.7870687,34.4288319 42.7870687,32.1727422 L42.7870687,31.6913463 L42.2477694,31.6913463 C39.9833791,31.6913463 37.7189888,31.6939877 35.4545985,31.6903557 C34.1701159,31.6882096 33.4119294,30.9345839 33.4102623,29.6591157 C33.4069282,27.2929125 33.4069282,24.9267093 33.4102623,22.5605061 C33.4120961,21.3144236 34.1781179,20.5508926 35.4305926,20.5487464 C37.6949829,20.5447843 39.9593732,20.5475908 42.2237635,20.5475908 L42.7870687,20.5475908 L42.7870687,20.5475908 Z M35.0106757,9.94202407 C35.0271548,9.87119288 35.0450363,9.8302219 35.0450363,9.78907732 C35.0467894,7.66379456 35.0555549,5.5383382 35.0420561,3.41288184 C35.0385499,2.85404462 34.7957465,2.37541331 34.3543176,2.01518118 C33.7032188,1.4839473 32.9867297,1.48255845 32.2088822,1.71449586 C23.2090279,4.39757419 14.2058427,7.07006257 5.20370937,9.74619667 C5.07205207,9.78543159 4.94337503,9.83525647 4.81329552,9.88022039 C4.81767826,9.90087948 4.82206099,9.92136497 4.82644372,9.94202407 L35.0106757,9.94202407 L35.0106757,9.94202407 Z" id="Fill-1" fill="#FFFFFF"></path>
                <path d="M40.582116,26.1042129 C40.5935836,27.1017693 39.7608737,27.9353105 38.748942,27.9393663 C37.738157,27.9432598 36.9038089,27.1168568 36.9059386,26.1139468 C36.9080683,25.1264487 37.7158771,24.317891 38.718471,24.2995589 C39.7251604,24.2810646 40.5704846,25.0996806 40.582116,26.1042129" id="Fill-2" fill="#FFFFFF"></path>
            </g>
        </g>
    </g>
</svg>