<?xml version="1.0" encoding="UTF-8"?>
<svg width="57px" height="74px" viewBox="0 0 57 74" version="1.1" xmlns="http://www.w3.org/2000/svg" xmlns:xlink="http://www.w3.org/1999/xlink">
    <!-- Generator: Sketch 42 (36781) - http://www.bohemiancoding.com/sketch -->
    <title>Group 48</title>
    <desc>Created with Sketch.</desc>
    <defs>
        <rect id="path-1" x="0" y="0" width="57" height="73.9966555"></rect>
        <mask id="mask-2" maskContentUnits="userSpaceOnUse" maskUnits="objectBoundingBox" x="0" y="0" width="57" height="73.9966555" fill="white">
            <use xlink:href="#path-1"></use>
        </mask>
    </defs>
    <g id="Page-1" stroke="none" stroke-width="1" fill="none" fill-rule="evenodd">
        <g id="Group-48">
            <g id="Group-47">
                <g id="Group">
                    <use id="Rectangle-175" stroke="#FFFFFF" mask="url(#mask-2)" stroke-width="2.86458333" xlink:href="#path-1"></use>
                    <rect id="Rectangle-176" fill="#FFFFFF" x="7.125" y="12.9807692" width="42.75" height="4.32692308"></rect>
                    <rect id="Rectangle-176-Copy" fill="#FFFFFF" x="7.125" y="23.0769231" width="42.75" height="4.32692308"></rect>
                    <rect id="Rectangle-176-Copy-2" fill="#FFFFFF" x="7.125" y="33.1730769" width="42.75" height="4.32692308"></rect>
                    <rect id="Rectangle-176-Copy-3" fill="#FFFFFF" x="7.125" y="43.2692308" width="42.75" height="4.32692308"></rect>
                    <rect id="Rectangle-176-Copy-4" fill="#FFFFFF" x="7.125" y="53.3653846" width="25.65" height="4.32692308"></rect>
                </g>
                <g id="Oval-29-+-`" transform="translate(37.050000, 53.365385)">
                    <ellipse id="Oval-29" fill="#FFFFFF" cx="7.125" cy="7.21153846" rx="7.125" ry="7.21153846"></ellipse>
                    <path d="M4.88663107,3.32840237 L9.86538462,3.32840237 L9.86538462,3.33954906 C9.57210938,3.8262904 9.40649761,4.08637729 9.36854435,4.11981753 L8.03846154,4.11981753 C8.22132727,4.35018366 8.3455361,4.63070595 8.41109174,4.96139281 L9.82915668,4.96139281 C9.84640816,4.96510839 9.85503378,4.97253945 9.85503378,4.9836862 C9.53760646,5.49643661 9.37544494,5.75280798 9.36854435,5.75280798 L8.44731968,5.75280798 C8.4266179,6.01661435 8.30930956,6.33429191 8.09539115,6.70585018 C7.81246681,7.08112404 7.54162256,7.32449105 7.28285029,7.43595854 C6.79980873,7.68490258 6.33747588,7.80937273 5.89583787,7.80937273 L5.89583787,7.82051943 C5.89583787,7.85767525 6.0045206,8.01186962 6.2218893,8.28310716 L8.68021355,11.4766346 L8.68021355,11.6271149 C8.68021355,11.6419772 8.67158794,11.6494083 8.65433646,11.6494083 L7.57267379,11.6494083 C5.62670633,9.20827043 4.6537372,7.98214652 4.6537372,7.97099977 L4.6537372,7.22974473 L4.66408804,7.20187799 C4.83660288,7.22788707 5.03844222,7.24089142 5.26961212,7.24089142 C6.35990594,7.24089142 7.03787911,6.8600499 7.30355197,6.09835544 C7.34495553,5.98688796 7.36565701,5.87170662 7.36565701,5.75280798 L4.40531706,5.75280798 C4.39151587,5.75280798 4.38461538,5.74537692 4.38461538,5.73051459 C4.71239359,5.21776417 4.87973048,4.96139281 4.88663107,4.96139281 L7.23627152,4.96139281 L7.23627152,4.95024612 C7.10170994,4.65671508 6.84121643,4.42821017 6.45478318,4.26472453 C6.17875942,4.16811938 5.93034177,4.11981753 5.70952277,4.11981753 L4.39496622,4.11981753 L4.39496622,4.0919508 C4.71239354,3.58291597 4.87628018,3.32840237 4.88663107,3.32840237 L4.88663107,3.32840237 Z" id="`" fill="#FFFFFF"></path>
                </g>
            </g>
        </g>
    </g>
</svg>