<?xml version="1.0" encoding="UTF-8" standalone="no"?>
<svg width="201px" height="41px" viewBox="0 0 201 41" version="1.1" xmlns="http://www.w3.org/2000/svg" xmlns:xlink="http://www.w3.org/1999/xlink">
    <!-- Generator: Sketch 43.2 (39069) - http://www.bohemiancoding.com/sketch -->
    <title>Group 12</title>
    <desc>Created with Sketch.</desc>
    <defs>
        <polygon id="path-1" points="0 0.203179167 200.997208 0.203179167 200.997208 40.6875 0 40.6875"></polygon>
    </defs>
    <g id="Page-1" stroke="none" stroke-width="1" fill="none" fill-rule="evenodd">
        <g id="Desktop-HD" transform="translate(-220.000000, -29.000000)">
            <g id="Page-1" transform="translate(220.000000, 29.000000)">
                <g id="Group-12">
                    <mask id="mask-2" fill="white">
                        <use xlink:href="#path-1"></use>
                    </mask>
                    <g id="Clip-7"></g>
                    <path d="M107.058742,30.4664448 C107.058742,33.1865979 108.26195,34.2196729 110.174242,34.2196729 C112.089325,34.2196729 113.292533,33.1865979 113.292533,30.4664448 L113.292533,9.90769687 C113.292533,7.18893229 112.089325,6.15585729 110.174242,6.15585729 C108.26195,6.15585729 107.058742,7.18893229 107.058742,9.90769687 L107.058742,30.4664448 Z M101.044096,10.2895458 C101.044096,4.19801354 104.271263,0.716939583 110.174242,0.716939583 C116.080013,0.716939583 119.305783,4.19801354 119.305783,10.2895458 L119.305783,30.0873729 C119.305783,36.1775167 116.080013,39.6585906 110.174242,39.6585906 C104.271263,39.6585906 101.044096,36.1775167 101.044096,30.0873729 L101.044096,10.2895458 Z M84.6940021,28.1828492 L88.7949604,1.15072 L97.1601896,1.15072 L97.1601896,39.223144 L91.4735646,39.223144 L91.4735646,11.9202492 L87.3181688,39.223144 L81.6329396,39.223144 L77.1495229,12.3007096 L77.1495229,39.223144 L71.9011896,39.223144 L71.9011896,1.15072 L80.2650229,1.15072 L84.6940021,28.1828492 Z" id="Fill-2" fill="#F7931D" mask="url(#mask-2)"></path>
                    <polygon id="Fill-4" fill="#F7931D" mask="url(#mask-2)" points="136.530646 18.9364114 134.343375 39.2230051 126.088417 39.2230051 121.82275 1.15058115 127.672688 1.15058115 130.899854 31.1736291 133.796208 1.15058115 139.591708 1.15058115 142.599729 31.3916301 145.715229 1.15058115 150.964958 1.15058115 146.699292 39.2230051 138.716521 39.2230051"></polygon>
                    <polygon id="Fill-6" fill="#F7931D" mask="url(#mask-2)" points="153.974375 1.15155313 159.989021 1.15155313 159.989021 39.2239771 153.974375 39.2239771"></polygon>
                    <polygon id="Fill-8" fill="#F7931D" mask="url(#mask-2)" points="181.037908 1.15113656 181.037908 6.48174802 169.611617 33.7846428 181.037908 33.7846428 181.037908 39.2235605 163.433658 39.2235605 163.433658 33.8929491 174.85995 6.59005427 163.979429 6.59005427 163.979429 1.15113656"></polygon>
                    <polygon id="Fill-9" fill="#F7931D" mask="url(#mask-2)" points="190.6083 17.1965686 198.864654 17.1965686 198.864654 22.6354864 190.6083 22.6354864 190.6083 33.7840874 200.996092 33.7840874 200.996092 39.2230051 184.593654 39.2230051 184.593654 1.15058115 200.996092 1.15058115 200.996092 6.58949885 190.6083 6.58949885"></polygon>
                    <path d="M22.6010542,4.34006135 C26.0571375,0.825662396 30.1720542,-0.382368854 34.8648458,0.461864479 C40.7775958,1.5254874 45.1786583,6.84221344 45.1968042,12.8240509 C45.2121583,17.5159332 45.2037833,22.2092041 45.1982,26.9010864 C45.1954083,29.122753 43.9279917,30.5321228 41.9249708,30.5654478 C39.8577417,30.5987728 38.4912208,29.2157853 38.4758667,26.938577 C38.4423667,22.2855739 38.4884292,17.6311822 38.4549292,12.9781791 C38.4325958,9.84146344 36.061075,7.22961656 33.0321167,6.90608635 C29.7491167,6.55617385 26.89045,8.48763531 26.145075,11.6021343 C26.0040958,12.1922645 25.9831583,12.8212739 25.9817625,13.4322322 C25.9692,17.9699864 25.9887417,22.5091291 25.9678042,27.0468832 C25.9594292,29.1352499 24.5984917,30.5418426 22.6429292,30.5668364 C20.6371167,30.5918301 19.25245,29.2324478 19.244075,27.1524124 C19.2259292,22.4994093 19.2705958,17.8450176 19.2287208,13.1920145 C19.1882417,8.78894885 15.1277625,5.83552073 11.0142417,7.1574124 C8.45847083,7.97804052 6.7402,10.2649686 6.72484583,12.9851218 C6.698325,17.6770041 6.731825,22.3688864 6.70949167,27.0607686 C6.698325,29.6628957 4.31842917,31.3110947 2.01530417,30.3307843 C0.771616667,29.8017499 0.0360125,28.8630957 0.0332208333,27.4773311 C0.0262416667,22.2855739 -0.051925,17.092428 0.0597416667,11.9020593 C0.1867625,5.95076969 5.90409583,0.493800937 11.9257208,0.231366562 C16.0769292,0.0494676042 19.5930333,1.32414885 22.6010542,4.34006135" id="Fill-10" fill="#FFFFFF" mask="url(#mask-2)"></path>
                    <path d="M32.158325,36.6046321 C28.3504917,40.3689685 23.8573042,41.4950758 18.7946167,40.1287508 C13.59095,38.7263237 9.73147083,33.8150519 9.63097083,28.4844404 C9.53884583,23.5245696 9.59747083,18.5619217 9.61980417,13.6006623 C9.62678333,11.989954 10.6569083,10.723604 12.1113667,10.3972967 C13.7068042,10.0390529 15.3036375,10.6680623 15.9247833,12.0829862 C16.2360542,12.7911425 16.3225958,13.6423185 16.329575,14.4310102 C16.3658667,18.9312737 16.3184083,23.4315373 16.3560958,27.9304123 C16.3826167,31.0615737 18.7708875,33.6581467 21.8096167,33.9733456 C25.0842417,34.3149269 27.9470958,32.3612487 28.674325,29.2467498 C28.8125125,28.655231 28.8278667,28.0276102 28.8292625,27.4152633 C28.841825,22.8775092 28.8167,18.3383665 28.8432208,13.8006123 C28.8571792,11.4192633 30.7303875,9.91269562 33.0055958,10.3792456 C34.56195,10.6972217 35.5613667,11.9843998 35.56695,13.756179 C35.5809083,18.4105706 35.5362417,23.0635737 35.5823042,27.7179654 C35.625575,32.1099227 39.712575,35.050854 43.8274917,33.7136883 C46.3679083,32.887506 48.0750125,30.5839154 48.087575,27.8623737 C48.1099083,23.1704915 48.0778042,18.4772206 48.1015333,13.7853383 C48.1127,11.3859383 50.114325,9.83354875 52.3909292,10.4042394 C53.7923458,10.7555404 54.7694292,11.9455206 54.7736167,13.4312602 C54.7903667,18.5855269 54.8489917,23.7397935 54.7568667,28.8926717 C54.6507833,34.8925602 48.9390333,40.452281 42.8532,40.6258487 C38.3753667,40.752206 36.5398458,40.0690435 32.158325,36.6046321" id="Fill-11" fill="#F7931D" mask="url(#mask-2)"></path>
                </g>
            </g>
        </g>
    </g>
</svg>